<svg width="27" height="27" viewBox="0 0 27 27" fill="none" xmlns="http://www.w3.org/2000/svg">
<path d="M9.90002 3.59998H10.8V4.49998H9.90002V3.59998Z" fill="#553615"/>
<path d="M9.90002 5.40002H10.8V6.30002H9.90002V5.40002Z" fill="#553615"/>
<path d="M15.3 17.1H16.2V18H15.3V17.1Z" fill="#553615"/>
<path d="M15.3 18.9H16.2V19.8H15.3V18.9Z" fill="#553615"/>
<path d="M21.6 13.5H12.6C12.2423 13.5011 11.8995 13.6436 11.6466 13.8966C11.3936 14.1495 11.2511 14.4923 11.25 14.85V22.05C11.2511 22.4077 11.3936 22.7505 11.6466 23.0034C11.8995 23.2564 12.2423 23.3989 12.6 23.4H21.6C21.9577 23.3989 22.3005 23.2564 22.5534 23.0034C22.8064 22.7505 22.9489 22.4077 22.95 22.05V14.85C22.9489 14.4923 22.8064 14.1495 22.5534 13.8966C22.3005 13.6436 21.9577 13.5011 21.6 13.5ZM22.05 22.05C22.05 22.1693 22.0026 22.2838 21.9182 22.3682C21.8338 22.4526 21.7193 22.5 21.6 22.5H12.6C12.4807 22.5 12.3662 22.4526 12.2818 22.3682C12.1974 22.2838 12.15 22.1693 12.15 22.05V14.85C12.15 14.7307 12.1974 14.6162 12.2818 14.5318C12.3662 14.4474 12.4807 14.4 12.6 14.4H21.6C21.7193 14.4 21.8338 14.4474 21.9182 14.5318C22.0026 14.6162 22.05 14.7307 22.05 14.85V22.05Z" fill="#553615"/>
<path d="M8.09998 20.25H8.99998V21.15H8.09998V20.25Z" fill="#553615"/>
<path d="M25.65 24.3H24.75V12.105C25.2576 11.9999 25.7135 11.7234 26.0413 11.3219C26.369 10.9204 26.5487 10.4183 26.55 9.9C26.5507 9.87591 26.5492 9.85181 26.5455 9.828L25.767 5.1795C25.7168 4.86386 25.5554 4.57656 25.312 4.36945C25.0685 4.16233 24.7591 4.04903 24.4395 4.05H21.15V1.35C21.1489 0.992286 21.0064 0.649529 20.7534 0.396586C20.5005 0.143643 20.1577 0.00106834 19.8 0H7.2C6.84229 0.00106834 6.49953 0.143643 6.24659 0.396586C5.99364 0.649529 5.85107 0.992286 5.85 1.35V4.05H2.5605C2.24089 4.04903 1.93146 4.16233 1.68803 4.36945C1.44461 4.57656 1.28323 4.86386 1.233 5.1795L0.4545 9.828C0.450761 9.85181 0.449255 9.87591 0.45 9.9C0.451327 10.4183 0.630958 10.9204 0.958729 11.3219C1.2865 11.7234 1.74245 11.9999 2.25 12.105V24.3H1.35C0.991958 24.3 0.64858 24.4422 0.395406 24.6954C0.142232 24.9486 0 25.292 0 25.65C0 26.008 0.142232 26.3514 0.395406 26.6046C0.64858 26.8578 0.991958 27 1.35 27H25.65C26.008 27 26.3514 26.8578 26.6046 26.6046C26.8578 26.3514 27 26.008 27 25.65C27 25.292 26.8578 24.9486 26.6046 24.6954C26.3514 24.4422 26.008 24.3 25.65 24.3ZM22.95 4.95H24.4395C24.5454 4.94959 24.648 4.98697 24.7289 5.05543C24.8097 5.1239 24.8635 5.21895 24.8805 5.3235L25.65 9.936C25.6452 10.294 25.4984 10.6355 25.2419 10.8853C24.9853 11.1351 24.64 11.2728 24.282 11.268C23.924 11.2632 23.5825 11.1164 23.3327 10.8599C23.0829 10.6033 22.9452 10.258 22.95 9.9V4.95ZM21.15 8.55V4.95H22.05V9.9C22.05 10.258 21.9078 10.6014 21.6546 10.8546C21.4014 11.1078 21.058 11.25 20.7 11.25C20.342 11.25 19.9986 11.1078 19.7454 10.8546C19.4922 10.6014 19.35 10.258 19.35 9.9H19.8C20.1577 9.89893 20.5005 9.75636 20.7534 9.50341C21.0064 9.25047 21.1489 8.90771 21.15 8.55ZM6.75 1.35C6.75 1.23065 6.79741 1.11619 6.8818 1.0318C6.96619 0.947411 7.08065 0.9 7.2 0.9H19.8C19.9193 0.9 20.0338 0.947411 20.1182 1.0318C20.2026 1.11619 20.25 1.23065 20.25 1.35V8.55C20.25 8.66935 20.2026 8.78381 20.1182 8.8682C20.0338 8.95259 19.9193 9 19.8 9H7.2C7.08065 9 6.96619 8.95259 6.8818 8.8682C6.79741 8.78381 6.75 8.66935 6.75 8.55V1.35ZM18.45 9.9C18.45 10.258 18.3078 10.6014 18.0546 10.8546C17.8014 11.1078 17.458 11.25 17.1 11.25C16.742 11.25 16.3986 11.1078 16.1454 10.8546C15.8922 10.6014 15.75 10.258 15.75 9.9H18.45ZM14.85 9.9C14.85 10.258 14.7078 10.6014 14.4546 10.8546C14.2014 11.1078 13.858 11.25 13.5 11.25C13.142 11.25 12.7986 11.1078 12.5454 10.8546C12.2922 10.6014 12.15 10.258 12.15 9.9H14.85ZM11.25 9.9C11.25 10.258 11.1078 10.6014 10.8546 10.8546C10.6014 11.1078 10.258 11.25 9.9 11.25C9.54196 11.25 9.19858 11.1078 8.94541 10.8546C8.69223 10.6014 8.55 10.258 8.55 9.9H11.25ZM4.95 4.95H5.85V8.55C5.85107 8.90771 5.99364 9.25047 6.24659 9.50341C6.49953 9.75636 6.84229 9.89893 7.2 9.9H7.65C7.65 10.258 7.50777 10.6014 7.25459 10.8546C7.00142 11.1078 6.65804 11.25 6.3 11.25C5.94196 11.25 5.59858 11.1078 5.34541 10.8546C5.09223 10.6014 4.95 10.258 4.95 9.9V4.95ZM4.5 11.25C4.70958 11.5294 4.98134 11.7562 5.29377 11.9125C5.60619 12.0687 5.9507 12.15 6.3 12.15C6.6493 12.15 6.99381 12.0687 7.30623 11.9125C7.61866 11.7562 7.89042 11.5294 8.1 11.25C8.30958 11.5294 8.58134 11.7562 8.89377 11.9125C9.20619 12.0687 9.5507 12.15 9.9 12.15C10.2493 12.15 10.5938 12.0687 10.9062 11.9125C11.2187 11.7562 11.4904 11.5294 11.7 11.25C11.9096 11.5294 12.1813 11.7562 12.4938 11.9125C12.8062 12.0687 13.1507 12.15 13.5 12.15C13.8493 12.15 14.1938 12.0687 14.5062 11.9125C14.8187 11.7562 15.0904 11.5294 15.3 11.25C15.5096 11.5294 15.7813 11.7562 16.0938 11.9125C16.4062 12.0687 16.7507 12.15 17.1 12.15C17.4493 12.15 17.7938 12.0687 18.1062 11.9125C18.4187 11.7562 18.6904 11.5294 18.9 11.25C19.1096 11.5294 19.3813 11.7562 19.6938 11.9125C20.0062 12.0687 20.3507 12.15 20.7 12.15C21.0493 12.15 21.3938 12.0687 21.7062 11.9125C22.0187 11.7562 22.2904 11.5294 22.5 11.25C22.8308 11.6891 23.3111 11.9917 23.85 12.1005V24.3H10.35V18.45C10.35 17.6146 10.0181 16.8134 9.42739 16.2226C8.83665 15.6319 8.03543 15.3 7.2 15.3C6.36457 15.3 5.56335 15.6319 4.97261 16.2226C4.38187 16.8134 4.05 17.6146 4.05 18.45V24.3H3.15V12.1005C3.68888 11.9917 4.16918 11.6891 4.5 11.25ZM9.45 18.45V24.3H4.95V18.45C4.95 17.8533 5.18705 17.281 5.60901 16.859C6.03097 16.4371 6.60326 16.2 7.2 16.2C7.79674 16.2 8.36903 16.4371 8.79099 16.859C9.21295 17.281 9.45 17.8533 9.45 18.45ZM1.35 9.936L2.1195 5.3235C2.13653 5.21895 2.19029 5.1239 2.27113 5.05543C2.35196 4.98697 2.45457 4.94959 2.5605 4.95H4.05V9.9C4.05477 10.258 3.91712 10.6033 3.66732 10.8599C3.41752 11.1164 3.07604 11.2632 2.718 11.268C2.35996 11.2728 2.01468 11.1351 1.75813 10.8853C1.50158 10.6355 1.35477 10.294 1.35 9.936ZM25.65 26.1H1.35C1.23065 26.1 1.11619 26.0526 1.0318 25.9682C0.947411 25.8838 0.9 25.7693 0.9 25.65C0.9 25.5307 0.947411 25.4162 1.0318 25.3318C1.11619 25.2474 1.23065 25.2 1.35 25.2H25.65C25.7693 25.2 25.8838 25.2474 25.9682 25.3318C26.0526 25.4162 26.1 25.5307 26.1 25.65C26.1 25.7693 26.0526 25.8838 25.9682 25.9682C25.8838 26.0526 25.7693 26.1 25.65 26.1Z" fill="#553615"/>
<path d="M18 1.79999H9.00002C8.64231 1.80106 8.29955 1.94363 8.04661 2.19657C7.79367 2.44952 7.65109 2.79227 7.65002 3.14999V4.94999C7.65002 5.06934 7.69743 5.18379 7.78183 5.26819C7.86622 5.35258 7.98068 5.39999 8.10002 5.39999V7.64999C8.10002 7.76934 8.14743 7.8838 8.23183 7.96819C8.31622 8.05258 8.43068 8.09999 8.55002 8.09999H18.45C18.5694 8.09999 18.6838 8.05258 18.7682 7.96819C18.8526 7.8838 18.9 7.76934 18.9 7.64999V5.39999C19.0194 5.39999 19.1338 5.35258 19.2182 5.26819C19.3026 5.18379 19.35 5.06934 19.35 4.94999V3.14999C19.349 2.79227 19.2064 2.44952 18.9534 2.19657C18.7005 1.94363 18.3577 1.80106 18 1.79999ZM12.15 4.49999C12.0307 4.49999 11.9162 4.5474 11.8318 4.63179C11.7474 4.71618 11.7 4.83064 11.7 4.94999V7.19999H9.00002V4.94999C9.00002 4.83064 8.95261 4.71618 8.86822 4.63179C8.78383 4.5474 8.66937 4.49999 8.55002 4.49999V3.14999C8.55002 3.03064 8.59743 2.91618 8.68183 2.83179C8.76622 2.7474 8.88068 2.69999 9.00002 2.69999H11.7C11.8194 2.69999 11.9338 2.7474 12.0182 2.83179C12.1026 2.91618 12.15 3.03064 12.15 3.14999V4.49999ZM15.3 4.49999C15.1807 4.49999 15.0662 4.5474 14.9818 4.63179C14.8974 4.71618 14.85 4.83064 14.85 4.94999V7.19999H12.6V5.39999C12.7194 5.39999 12.8338 5.35258 12.9182 5.26819C13.0026 5.18379 13.05 5.06934 13.05 4.94999V3.14999C13.0488 2.99647 13.0214 2.84429 12.969 2.69999H14.85C14.9694 2.69999 15.0838 2.7474 15.1682 2.83179C15.2526 2.91618 15.3 3.03064 15.3 3.14999V4.49999ZM18.45 4.49999C18.3307 4.49999 18.2162 4.5474 18.1318 4.63179C18.0474 4.71618 18 4.83064 18 4.94999V7.19999H15.75V5.39999C15.8694 5.39999 15.9838 5.35258 16.0682 5.26819C16.1526 5.18379 16.2 5.06934 16.2 4.94999V3.14999C16.1988 2.99647 16.1714 2.84429 16.119 2.69999H18C18.1194 2.69999 18.2338 2.7474 18.3182 2.83179C18.4026 2.91618 18.45 3.03064 18.45 3.14999V4.49999Z" fill="#553615"/>
<path d="M19.8 15.3H14.4C14.0423 15.3011 13.6995 15.4436 13.4466 15.6966C13.1936 15.9495 13.0511 16.2923 13.05 16.65V18.45C13.05 18.5693 13.0974 18.6838 13.1818 18.7682C13.2662 18.8526 13.3806 18.9 13.5 18.9V21.15C13.5 21.2693 13.5474 21.3838 13.6318 21.4682C13.7162 21.5526 13.8306 21.6 13.95 21.6H20.25C20.3693 21.6 20.4838 21.5526 20.5682 21.4682C20.6526 21.3838 20.7 21.2693 20.7 21.15V18.9C20.8193 18.9 20.9338 18.8526 21.0182 18.7682C21.1026 18.6838 21.15 18.5693 21.15 18.45V16.65C21.1489 16.2923 21.0063 15.9495 20.7534 15.6966C20.5005 15.4436 20.1577 15.3011 19.8 15.3ZM17.55 18C17.4306 18 17.3162 18.0474 17.2318 18.1318C17.1474 18.2162 17.1 18.3306 17.1 18.45V20.7H14.4V18.45C14.4 18.3306 14.3526 18.2162 14.2682 18.1318C14.1838 18.0474 14.0693 18 13.95 18V16.65C13.95 16.5306 13.9974 16.4162 14.0818 16.3318C14.1662 16.2474 14.2806 16.2 14.4 16.2H17.1C17.2193 16.2 17.3338 16.2474 17.4182 16.3318C17.5026 16.4162 17.55 16.5306 17.55 16.65V18ZM20.25 18C20.1306 18 20.0162 18.0474 19.9318 18.1318C19.8474 18.2162 19.8 18.3306 19.8 18.45V20.7H18V18.9C18.1193 18.9 18.2338 18.8526 18.3182 18.7682C18.4026 18.6838 18.45 18.5693 18.45 18.45V16.65C18.4488 16.4965 18.4214 16.3443 18.369 16.2H19.8C19.9193 16.2 20.0338 16.2474 20.1182 16.3318C20.2026 16.4162 20.25 16.5306 20.25 16.65V18Z" fill="#553615"/>
</svg>
