<svg width="27" height="27" viewBox="0 0 27 27" fill="none" xmlns="http://www.w3.org/2000/svg">
<path d="M23.7047 1.21843C21.8045 0.432686 19.3041 0 16.6641 0C14.0266 0 11.5348 0.433002 9.64786 1.21922C7.91474 1.94136 6.14957 3.23631 6.40433 5.0846C5.26331 5.29031 4.20968 5.58642 3.29532 5.96447C1.17028 6.84318 0 8.09599 0 9.49219C0 10.0982 0.230555 11.0083 1.32875 11.9024C1.48732 12.0315 1.58203 12.2463 1.58203 12.477V24.627C1.58203 25.9355 2.64658 27 3.95508 27H16.6641C17.9726 27 19.0371 25.9355 19.0371 24.627V20.5664H23.0449C24.3534 20.5664 25.418 19.5019 25.418 18.1934V7.73091C25.418 7.5002 25.5126 7.28536 25.6712 7.15627C26.7694 6.26221 27 5.35212 27 4.74609C27 3.3499 25.8297 2.09709 23.7047 1.21843ZM18.2916 10.6755C17.7599 11.1082 17.4551 11.7649 17.4551 12.477V24.627C17.4551 25.0631 17.1002 25.418 16.6641 25.418H3.95508C3.51891 25.418 3.16406 25.0631 3.16406 24.627V12.477C3.16406 11.7649 2.85915 11.1083 2.32759 10.6755C1.98745 10.3986 1.58203 9.96854 1.58203 9.49219C1.58203 8.09235 5.11502 6.32812 10.3359 6.32812C15.5472 6.32812 19.0371 8.08777 19.0371 9.49219C19.0371 9.96854 18.6317 10.3986 18.2916 10.6755ZM24.6724 5.9294C24.1408 6.36214 23.8359 7.01879 23.8359 7.73091V18.1934C23.8359 18.6295 23.4811 18.9844 23.0449 18.9844H19.0371V12.477C19.0371 12.2463 19.1318 12.0315 19.2903 11.9024C20.3886 11.0083 20.6191 10.0982 20.6191 9.49219C20.6191 8.09568 19.4589 6.84313 17.3521 5.96537C15.4652 5.1791 12.9734 4.74609 10.3359 4.74609C9.53037 4.74609 8.73793 4.78659 7.97138 4.8649C7.77605 3.4078 11.3771 1.58203 16.6641 1.58203C21.8836 1.58203 25.418 3.34579 25.418 4.74609C25.418 5.22244 25.0125 5.65249 24.6724 5.9294Z" fill="#553615"/>
<path d="M10.8952 11.3059C10.5863 10.997 10.0855 10.997 9.77655 11.3059L6.61249 14.47C6.30357 14.7789 6.30357 15.2797 6.61249 15.5886C6.76695 15.7431 6.96939 15.8203 7.17184 15.8203C7.37429 15.8203 7.57674 15.7431 7.73114 15.5886L10.8952 12.4246C11.2041 12.1156 11.2041 11.6148 10.8952 11.3059Z" fill="#553615"/>
<path d="M14.0594 17.634C13.7505 17.3251 13.2496 17.3251 12.9407 17.634L9.77667 20.7981C9.46775 21.107 9.46775 21.6078 9.77667 21.9167C10.0855 22.2256 10.5864 22.2257 10.8953 21.9167L14.0594 18.7527C14.3683 18.4438 14.3683 17.943 14.0594 17.634Z" fill="#553615"/>
<path d="M14.0593 12.8879C13.7504 12.579 13.2495 12.579 12.9407 12.8879L6.61255 19.2161C6.30363 19.525 6.30363 20.0258 6.61255 20.3347C6.92141 20.6436 7.42228 20.6436 7.7312 20.3347L14.0593 14.0066C14.3682 13.6977 14.3682 13.1969 14.0593 12.8879Z" fill="#553615"/>
</svg>
