<svg width="27" height="27" viewBox="0 0 27 27" fill="none" xmlns="http://www.w3.org/2000/svg">
<path fill-rule="evenodd" clip-rule="evenodd" d="M13.5 4.5C11.0138 4.5 9 6.51375 9 9C9 11.4862 11.0138 13.5 13.5 13.5C15.9862 13.5 18 11.4862 18 9C18 6.51375 15.9862 4.5 13.5 4.5ZM15.8623 8.9998C15.8623 7.6948 14.8048 6.6373 13.4998 6.6373C12.1948 6.6373 11.1373 7.6948 11.1373 8.9998C11.1373 10.3048 12.1948 11.3623 13.4998 11.3623C14.8048 11.3623 15.8623 10.3048 15.8623 8.9998ZM20.3623 19.1248C20.3623 18.4048 16.8411 16.7623 13.4998 16.7623C10.1586 16.7623 6.6373 18.4048 6.6373 19.1248V20.3623H20.3623V19.1248ZM4.5 19.125C4.5 16.1325 10.4963 14.625 13.5 14.625C16.5037 14.625 22.5 16.1325 22.5 19.125V21.375C22.5 21.9937 21.9937 22.5 21.375 22.5H5.625C5.00625 22.5 4.5 21.9937 4.5 21.375V19.125Z" fill="#553615"/>
</svg>
