<svg width="27" height="27" viewBox="0 0 27 27" fill="none" xmlns="http://www.w3.org/2000/svg">
<path d="M10.3359 15.9258C9.89902 15.9258 9.54492 16.2799 9.54492 16.7168V26.209C9.54492 26.6459 9.89902 27 10.3359 27H16.6641C17.101 27 17.4551 26.6459 17.4551 26.209V16.7168C17.4551 16.2799 17.101 15.9258 16.6641 15.9258H10.3359ZM15.873 25.418H11.127V17.5078H15.873V25.418Z" fill="#553615"/>
<path d="M26.209 22.2539H19.8281C19.3912 22.2539 19.0371 22.608 19.0371 23.0449V26.209C19.0371 26.6459 19.3912 27 19.8281 27H26.209C26.6459 27 27 26.6459 27 26.209V23.0449C27 22.608 26.6459 22.2539 26.209 22.2539ZM25.418 25.418H20.6191V23.8359H25.418V25.418Z" fill="#553615"/>
<path d="M0.791016 27H7.17188C7.60879 27 7.96289 26.6459 7.96289 26.209V19.8809C7.96289 19.4439 7.60879 19.0898 7.17188 19.0898H0.791016C0.354103 19.0898 0 19.4439 0 19.8809V26.209C0 26.6459 0.354103 27 0.791016 27ZM1.58203 20.6719H6.38086V25.418H1.58203V20.6719Z" fill="#553615"/>
<path d="M19.0221 13.7058L20.4974 6.23131C21.481 5.94168 22.2012 5.03119 22.2012 3.95508C22.2012 2.64661 21.1366 1.58203 19.8281 1.58203C18.5197 1.58203 17.4551 2.64661 17.4551 3.95508C17.4551 4.8081 17.9076 5.5573 18.5852 5.97546L16.7619 8.71024L14.635 4.45647C15.3721 4.05334 15.873 3.27056 15.873 2.37305C15.873 1.06458 14.8085 0 13.5 0C12.1915 0 11.127 1.06458 11.127 2.37305C11.127 3.27056 11.6279 4.05334 12.365 4.45647L10.2381 8.71024L8.41484 5.97546C9.09235 5.5573 9.54492 4.8081 9.54492 3.95508C9.54492 2.64661 8.48035 1.58203 7.17188 1.58203C5.8634 1.58203 4.79883 2.64661 4.79883 3.95508C4.79883 5.03119 5.51898 5.94168 6.5026 6.23131L7.97793 13.7058C8.05106 14.0766 8.37611 14.3438 8.75391 14.3438H18.2461C18.6239 14.3438 18.9489 14.0766 19.0221 13.7058ZM19.8281 3.16406C20.2642 3.16406 20.6191 3.51899 20.6191 3.95508C20.6191 4.39117 20.2642 4.74609 19.8281 4.74609C19.392 4.74609 19.0371 4.39117 19.0371 3.95508C19.0371 3.51899 19.392 3.16406 19.8281 3.16406ZM13.5 1.58203C13.9361 1.58203 14.291 1.93696 14.291 2.37305C14.291 2.80914 13.9361 3.16406 13.5 3.16406C13.0639 3.16406 12.709 2.80914 12.709 2.37305C12.709 1.93696 13.0639 1.58203 13.5 1.58203ZM7.17188 3.16406C7.60796 3.16406 7.96289 3.51899 7.96289 3.95508C7.96289 4.39117 7.60796 4.74609 7.17188 4.74609C6.73579 4.74609 6.38086 4.39117 6.38086 3.95508C6.38086 3.51899 6.73579 3.16406 7.17188 3.16406ZM9.40402 12.7617L8.71703 9.28084L9.67779 10.722C9.83414 10.9566 10.1032 11.0897 10.3852 11.0728C10.6666 11.0553 10.9175 10.8892 11.0433 10.6371L13.5 5.72374L15.9567 10.6369C16.0827 10.8892 16.3334 11.0553 16.6148 11.0728C16.8962 11.0899 17.1659 10.9566 17.3222 10.722L18.283 9.28084L17.596 12.7617H9.40402Z" fill="#553615"/>
</svg>
